<?xml version="1.0" encoding="UTF-8" standalone="no"?><!DOCTYPE svg PUBLIC "-//W3C//DTD SVG 1.1//EN" "http://www.w3.org/Graphics/SVG/1.1/DTD/svg11.dtd"><svg width="100%" height="100%" viewBox="0 0 1250 1182" version="1.1" xmlns="http://www.w3.org/2000/svg" xmlns:xlink="http://www.w3.org/1999/xlink" xml:space="preserve" xmlns:serif="http://www.serif.com/" style="fill-rule:evenodd;clip-rule:evenodd;stroke-linejoin:round;stroke-miterlimit:2;"><g><path d="M786.029,591.892c0,68.458 -55.491,123.962 -123.958,123.962c-68.459,0 -123.963,-55.504 -123.963,-123.962c0,-68.459 55.504,-123.959 123.963,-123.959c68.467,0 123.958,55.5 123.958,123.959Zm-212.504,-267.746c-13.179,4.358 -25.912,9.65 -38.15,15.812l-87.087,-30.875l-69.026,69.025l30.88,87.088c-6.167,12.233 -11.459,24.967 -15.813,38.146l-83.4,39.733l0,97.621l83.388,39.737c4.362,13.18 9.658,25.913 15.825,38.15l-30.88,87.088l69.026,69.021l87.079,-30.875c12.241,6.166 24.979,11.462 38.166,15.825l39.729,83.383l97.617,0l39.734,-83.383c13.183,-4.363 25.92,-9.659 38.162,-15.825l87.075,30.875l69.025,-69.021l-30.875,-87.075c6.171,-12.246 11.462,-24.983 15.825,-38.167l83.379,-39.733l0,-97.621l-83.383,-39.729c-4.359,-13.183 -9.659,-25.917 -15.821,-38.154l30.875,-87.088l-69.025,-69.021l-87.087,30.875c-12.23,-6.162 -24.967,-11.454 -38.142,-15.812l-39.742,-83.396l-97.617,-0l-39.737,83.396Z" style="fill:#221e1f;fill-rule:nonzero;"/><path d="M262.367,541.196l-63.18,0.679c22.976,-235.304 221.913,-419.808 463.142,-419.808l0,-122.067c-309.029,0 -563.083,239.863 -585.787,543.192l-76.542,0.825l160.079,210.533l102.288,-213.354Z" style="fill:#221e1f;fill-rule:nonzero;"/><path d="M854.25,1009.76c-215.267,97.754 -474.521,17.72 -595.142,-191.192l-105.72,61.033c108.695,188.25 306.554,293.613 509.741,293.613c85.671,-0 172.279,-18.796 253.554,-57.942l39.009,65.917l102.287,-243.896l-235.912,18.092l32.183,54.375Z" style="fill:#221e1f;fill-rule:nonzero;"/><path d="M993.887,102.821l37.563,-66.7l-262.367,33.367l133.625,195.254l31,-55.05c192.292,137.546 252.609,402.083 131.992,611.004l105.717,61.033c154.512,-267.633 73.808,-607.587 -177.53,-778.908Z" style="fill:#221e1f;fill-rule:nonzero;"/></g></svg>